<svg aria-hidden="true" style="width:0;height:0;position:absolute;overflow:hidden" xmlns="http://www.w3.org/2000/svg"><defs><symbol id="icon-close" viewBox="0 0 32 32"><path d="m26.667 7.303-1.97-1.97-7.808 7.808-7.808-7.808-1.97 1.97 7.808 7.808-7.808 7.808 1.97 1.97 7.808-7.808 7.808 7.808 1.97-1.97-7.808-7.808 7.808-7.808z"/></symbol><symbol id="icon-send" viewBox="0 0 32 32"><path d="M32 0 0 18l10.227 3.787L26 7 14.003 23.187l.009.003-.012-.003V32l5.735-6.691L27.002 28l4.999-28z"/></symbol><symbol id="icon-person" viewBox="0 0 32 32"><path d="M16 16a5.333 5.333 0 1 0 0-10.666A5.333 5.333 0 1 0 16 16zm0 2.667c-3.561 0-10.667 1.787-10.667 5.333v1.333c0 .732.599 1.333 1.333 1.333h18.667c.732 0 1.333-.601 1.333-1.333V24c0-3.547-7.108-5.333-10.667-5.333z"/></symbol><symbol id="icon-phone" viewBox="0 0 32 32"><path d="m24.882 19.774-3.268-.373a2.552 2.552 0 0 0-2.11.732l-2.368 2.368c-3.669-1.894-6.585-4.81-8.427-8.372l-.051-.108 2.382-2.377a2.552 2.552 0 0 0 .731-2.122l.001.012-.373-3.243a2.578 2.578 0 0 0-2.557-2.276H6.613c-1.454 0-2.663 1.209-2.574 2.661.683 10.987 9.47 19.762 20.444 20.444 1.452.089 2.663-1.12 2.663-2.574v-2.238a2.549 2.549 0 0 0-2.253-2.532l-.012-.001z"/></symbol><symbol id="icon-email-form" viewBox="0 0 32 32"><path d="M26.667 5.333H5.334A2.662 2.662 0 0 0 2.682 8l-.014 16c0 1.467 1.2 2.667 2.667 2.667h21.333c1.467 0 2.667-1.2 2.667-2.667V8c0-1.467-1.2-2.667-2.667-2.667zm-.534 5.668-9.426 5.892a1.343 1.343 0 0 1-1.421-.004l.006.003L5.866 11A1.133 1.133 0 1 1 7.07 9.083l-.004-.003 8.933 5.586 8.933-5.588a1.132 1.132 0 1 1 1.204 1.916l-.005.003z"/></symbol><symbol id="icon-agree" viewBox="0 0 32 32"><path d="M28.444 4.334v23.332H3.556V4.334h24.888zm0-3.334H3.556C1.6 1 0 2.5 0 4.334v23.332C0 29.5 1.6 31 3.556 31h24.888C30.4 31 32 29.5 32 27.666V4.334C32 2.5 30.4 1 28.444 1z"/></symbol><symbol id="icon-check" viewBox="0 0 34 32"><path d="M4.267 0h25.6a4.267 4.267 0 0 1 4.267 4.267v23.467a4.267 4.267 0 0 1-4.267 4.267h-25.6A4.267 4.267 0 0 1 0 27.734V4.267A4.267 4.267 0 0 1 4.267 0z"/><path fill="#fff" style="fill:var(--color2,#fff);stroke:var(--color2,#fff)" stroke="#fff" stroke-width=".427" d="m8.442 16.538-.147-.141-.147.139-2.057 1.95.162.156 7.605 7.253.147-.141 16.171-15.426-.162-.154-2.029-1.935-.147.141-13.98 13.325-5.417-5.167z"/></symbol><symbol id="icon-burger" viewBox="0 0 32 32"><path d="M6.4 11.733V9.6h19.2v2.133H6.4zm0 5.334h19.2v-2.133H6.4v2.133zm0 5.333h19.2v-2.133H6.4V22.4z"/></symbol><symbol id="logo" clip-path="url('#clip0_0_162')"><path id="Vector" d="m44.635 21.104 1.278 2.95c.237.544.887.801 1.455.575.568-.223.838-.846.602-1.39l-1.278-2.95-2.057.815Z" fill="#333"/><path id="Vector_2" d="m45.488 23.07 2.057-.814-2.057.815Z" fill="#333"/><path id="Vector_3" d="m41.937 14.877 2.91 1.152-2.91-1.152Z" fill="#333"/><path id="Vector_4" d="M43.52 8.896c0 1.568-1.329 2.839-2.967 2.839-1.64 0-2.97-1.27-2.97-2.839 0-1.567 1.33-2.837 2.97-2.837 1.638 0 2.967 1.27 2.967 2.837Z" fill="#333"/><path id="Vector_5" d="M42.036 8.896c0 .785-.664 1.42-1.483 1.42-.82 0-1.486-.635-1.486-1.42 0-.783.666-1.419 1.486-1.419.819 0 1.483.636 1.483 1.42Z" fill="#333"/><path id="Vector_6" d="m38.47 10.92-4.06 9.37-1.018 4.205.686.271 2.39-3.662.568-1.31c-.443-1.025.065-2.2 1.136-2.623l2.355-5.437a3.03 3.03 0 0 1-2.056-.814Z" fill="#333"/><path id="Vector_7" d="M42.633 10.919c-.531.5-1.256.809-2.057.815l3.493 8.058 2.056-.814-3.492-8.06Z" fill="#333"/><path id="Vector_8" d="M41.665 4.64V1.445c0-.588-.5-1.065-1.113-1.065-.615 0-1.113.476-1.113 1.065V4.64h2.226Z" fill="#333"/><path id="Vector_9" d="M40.553 6.059c.19 0 .375.018.555.05V4.64h-1.112v1.47c.18-.032.365-.05.557-.05Z" fill="#333"/><path id="Vector_10" d="M25.096 25.94h-3.703V.38h3.703c.819 0 1.481.637 1.481 1.421v22.72c0 .785-.663 1.42-1.481 1.42Z" fill="#333"/><path id="Vector_11" d="M24.911 2.511a.545.545 0 0 0 .556-.532.545.545 0 0 0-.556-.533.544.544 0 0 0-.556.533c0 .294.25.532.556.532Z" fill="#333"/><path id="Vector_12" d="M29.17 15.47c0 .293.248.532.555.532.307 0 .556-.24.556-.532a.545.545 0 0 1 0 0 .545.545 0 0 1-.556.532.545.545 0 0 1-.556-.532Z" fill="#333"/><path id="Vector_13" d="M29.91.38c-.408 0-.74.32-.74.712v14.91l1.11 4.26 1.111-4.26V1.092c0-.392-.331-.71-.74-.71L29.91.38Z" fill="#333"/></symbol><symbol id="facebook" viewBox="0 0 32 32"><path d="M20.446 15.982h-2.61V25.6h-3.955v-9.618H12v-3.38h1.881v-2.187c0-1.564.739-4.014 3.99-4.014l2.929.012v3.281h-2.125c-.349 0-.839.175-.839.921v1.989h2.955l-.346 3.377z"/></symbol><symbol id="button-arrow" viewBox="0 0 11 11"><path d="M.895.006A1 1 0 0 0 .223.37 1 1 0 0 0 .37 1.777L4.36 5 .371 8.223a1 1 0 0 0-.148 1.406 1 1 0 0 0 1.406.148l4.947-4a1 1 0 0 0 0-1.554l-4.947-4A1 1 0 0 0 .895.006Z"/></symbol><symbol id="arrow-default" viewBox="0 0 41 16"><path d="M40.707 8.707a1 1 0 0 0 0-1.414L34.343.929a1 1 0 1 0-1.414 1.414L38.586 8l-5.657 5.657a1 1 0 0 0 1.414 1.414l6.364-6.364ZM0 9h40V7H0v2Z"/></symbol><symbol id="arrow-hover" viewBox="0 0 51 16"><path d="M50.707 8.707a1 1 0 0 0 0-1.414L44.343.929a1 1 0 1 0-1.414 1.414L48.586 8l-5.657 5.657a1 1 0 0 0 1.414 1.414l6.364-6.364ZM0 9h50V7H0v2Z"/></symbol><symbol id="arrow-focus" viewBox="0 0 52 24"><path d="M51.06 13.06a1.5 1.5 0 0 0 0-2.12l-9.545-9.547a1.5 1.5 0 1 0-2.122 2.122L47.88 12l-8.486 8.485a1.5 1.5 0 1 0 2.122 2.122l9.546-9.546ZM0 13.5h50v-3H0v3Z"/></symbol><symbol id="arrow-right" viewBox="0 0 16 16"><path d="m9.707 13.707 5-5a.999.999 0 0 0 0-1.414l-5-5a.999.999 0 1 0-1.414 1.414L11.586 7H2a1 1 0 0 0 0 2h9.586l-3.293 3.293a.997.997 0 0 0 0 1.414.999.999 0 0 0 1.414 0z"/></symbol><symbol id="arrow-left" viewBox="0 0 16 16"><path d="m6.293 13.707-5-5a.999.999 0 0 1 0-1.414l5-5a.999.999 0 1 1 1.414 1.414L4.414 7H14a1 1 0 0 1 0 2H4.414l3.293 3.293a.997.997 0 0 1 0 1.414.999.999 0 0 1-1.414 0z"/></symbol><symbol id="pencil" viewBox="0 0 16 16"><path d="m6 10 2-1 7-7-1-1-7 7-1 2zm-1.48 3.548c-.494-1.043-1.026-1.574-2.069-2.069l1.548-4.262 2-1.217 6-6h-3l-6 6-3 10 10-3 6-6V4l-6 6-1.217 2z"/></symbol><symbol id="cart" viewBox="0 0 16 16"><path d="M6 14.5a1.5 1.5 0 1 1-3.001-.001A1.5 1.5 0 0 1 6 14.5zM16 14.5a1.5 1.5 0 1 1-3.001-.001A1.5 1.5 0 0 1 16 14.5zM16 8V2H4a1 1 0 0 0-1-1H0v1h2l.751 6.438A2 2 0 0 0 4 12h12v-1H4a1 1 0 0 1-1-1v-.01L16 8z"/></symbol></defs></svg>