<svg aria-hidden="true" style="position:absolute;width:0;height:0;overflow:hidden" xmlns="http://www.w3.org/2000/svg">
<defs>

<symbol id="icon-close" viewBox="0 0 32 32">
<path d="M26.667 7.303l-1.97-1.97-7.808 7.808-7.808-7.808-1.97 1.97 7.808 7.808-7.808 7.808 1.97 1.97 7.808-7.808 7.808 7.808 1.97-1.97-7.808-7.808 7.808-7.808z"></path>
</symbol>
<symbol id="icon-send" viewBox="0 0 32 32">
<path d="M32 0l-32 18 10.227 3.787 15.773-14.787-11.997 16.187 0.009 0.003-0.012-0.003v8.813l5.735-6.691 7.267 2.691 4.999-28z"></path>
</symbol>
<symbol id="icon-person" viewBox="0 0 32 32">
<path d="M16 16c2.946 0 5.333-2.388 5.333-5.333s-2.388-5.333-5.333-5.333v0c-2.946 0-5.333 2.388-5.333 5.333s2.388 5.333 5.333 5.333v0zM16 18.667c-3.561 0-10.667 1.787-10.667 5.333v1.333c0 0.732 0.599 1.333 1.333 1.333h18.667c0.732 0 1.333-0.601 1.333-1.333v-1.333c0-3.547-7.108-5.333-10.667-5.333z"></path>
</symbol>
<symbol id="icon-phone" viewBox="0 0 32 32">
<path d="M24.882 19.774l-3.268-0.373c-0.090-0.011-0.194-0.018-0.3-0.018-0.707 0-1.347 0.287-1.81 0.75l-2.368 2.368c-3.669-1.894-6.585-4.81-8.427-8.372l-0.051-0.108 2.382-2.377c0.463-0.463 0.75-1.103 0.75-1.81 0-0.106-0.006-0.21-0.019-0.312l0.001 0.012-0.373-3.243c-0.155-1.287-1.24-2.276-2.557-2.276-0.001 0-0.002 0-0.003 0h-2.226c-1.454 0-2.663 1.209-2.574 2.661 0.683 10.987 9.47 19.762 20.444 20.444 1.452 0.089 2.663-1.12 2.663-2.574v-2.226c0-0.004 0-0.008 0-0.012 0-1.308-0.985-2.386-2.253-2.532l-0.012-0.001z"></path>
</symbol>
<symbol id="icon-email-form" viewBox="0 0 32 32">
<path d="M26.667 5.333h-21.333c-1.467 0-2.652 1.2-2.652 2.667l-0.014 16c0 1.467 1.2 2.667 2.667 2.667h21.333c1.467 0 2.667-1.2 2.667-2.667v-16c0-1.467-1.2-2.667-2.667-2.667zM26.133 11.001l-9.426 5.892c-0.201 0.126-0.446 0.2-0.708 0.2s-0.506-0.075-0.713-0.204l0.006 0.003-9.426-5.892c-0.336-0.201-0.557-0.562-0.557-0.975 0-0.625 0.507-1.132 1.132-1.132 0.233 0 0.449 0.070 0.629 0.19l-0.004-0.003 8.933 5.586 8.933-5.588c0.176-0.118 0.392-0.188 0.624-0.188 0.625 0 1.132 0.507 1.132 1.132 0 0.413-0.221 0.775-0.552 0.972l-0.005 0.003z"></path>
</symbol>
<symbol id="icon-agree" viewBox="0 0 32 32">
<path d="M28.444 4.334v23.332h-24.888v-23.332h24.888zM28.444 1h-24.888c-1.956 0-3.556 1.5-3.556 3.334v23.332c0 1.834 1.6 3.334 3.556 3.334h24.888c1.956 0 3.556-1.5 3.556-3.334v-23.332c0-1.834-1.6-3.334-3.556-3.334z"></path>
</symbol>
<symbol id="icon-check" viewBox="0 0 34 32">
<path  d="M4.267 0h25.6c2.356 0 4.267 1.91 4.267 4.267v23.467c0 2.356-1.91 4.267-4.267 4.267h-25.6c-2.356 0-4.267-1.91-4.267-4.267v-23.467c0-2.356 1.91-4.267 4.267-4.267z"></path>
<path fill="#fff" style="fill: var(--color2, #fff); stroke: var(--color2, #fff)" stroke="#fff" stroke-linejoin="miter" stroke-linecap="butt" stroke-miterlimit="4" stroke-width="0.4267" d="M8.442 16.538l-0.147-0.141-0.147 0.139-2.057 1.95 0.162 0.156 7.605 7.253 0.147-0.141 16.171-15.426-0.162-0.154-2.029-1.935-0.147 0.141-13.98 13.325-5.417-5.167z"></path>
</symbol>
<symbol id="icon-burger" viewBox="0 0 32 32">
<path d="M6.4 11.733v-2.133h19.2v2.133h-19.2zM6.4 17.067h19.2v-2.133h-19.2v2.133zM6.4 22.4h19.2v-2.133h-19.2v2.133z"></path>
</symbol>
<symbol id="logo" clip-path="url(#clip0_0_162)">
<path id="Vector" d="M44.6348 21.1039L45.9133 24.0542C46.1496 24.598 46.8002 24.8552 47.3678 24.6293C47.9364 24.4057 48.206 23.783 47.9704 23.2389L46.6922 20.2896L44.6348 21.1039Z" fill="#333333"/>
<path id="Vector_2" d="M45.4877 23.0706L47.5447 22.2561L45.4877 23.0706Z" fill="#333333"/>
<path id="Vector_3" d="M41.9372 14.877L44.8465 16.0287L41.9372 14.877Z" fill="#333333"/>
<path id="Vector_4" d="M43.5203 8.89645C43.5203 10.4642 42.1915 11.7349 40.5531 11.7349C38.9129 11.7349 37.5838 10.4642 37.5838 8.89645C37.5838 7.32897 38.9129 6.05896 40.5531 6.05896C42.1912 6.05896 43.5203 7.32897 43.5203 8.89645Z" fill="#333333"/>
<path id="Vector_5" d="M42.0359 8.89649C42.0359 9.68086 41.3719 10.3163 40.5527 10.3163C39.7325 10.3163 39.067 9.68086 39.067 8.89649C39.067 8.11278 39.7325 7.4773 40.5527 7.4773C41.3719 7.47694 42.0359 8.11278 42.0359 8.89649Z" fill="#333333"/>
<path id="Vector_6" d="M38.4707 10.9196L34.41 20.2899L33.3921 24.4949L34.0777 24.7664L36.4677 21.1043L37.0363 19.7937C36.5926 18.769 37.1009 17.5942 38.1724 17.1706L40.5271 11.734C39.7262 11.7276 39.0016 11.4183 38.4707 10.9196Z" fill="#333333"/>
<path id="Vector_7" d="M42.6331 10.9189C42.1018 11.4183 41.3766 11.7276 40.5757 11.7337L44.0686 19.7921L46.125 18.9781L42.6331 10.9189Z" fill="#333333"/>
<path id="Vector_8" d="M41.6653 4.63947V1.44605C41.6649 0.85753 41.165 0.38147 40.5521 0.38147C39.9372 0.38147 39.439 0.856886 39.4386 1.44605L39.439 4.63947H41.6653Z" fill="#333333"/>
<path id="Vector_9" d="M40.5527 6.05899C40.7424 6.05899 40.9284 6.07721 41.1083 6.10982V4.63977H39.9955V6.10982C40.1762 6.07689 40.3611 6.05899 40.5527 6.05899Z" fill="#333333"/>
<path id="Vector_10" d="M25.0957 25.9407H21.3929V0.380859H25.0963C25.9146 0.380859 26.5774 1.01699 26.5774 1.80136V24.5214H26.5771C26.5768 25.3058 25.9139 25.9407 25.0957 25.9407Z" fill="#333333"/>
<path id="Vector_11" d="M24.911 2.51126C25.2179 2.51126 25.4667 2.27281 25.4667 1.97865C25.4667 1.6845 25.2179 1.44604 24.911 1.44604C24.6042 1.44604 24.3555 1.6845 24.3555 1.97865C24.3555 2.27281 24.6042 2.51126 24.911 2.51126Z" fill="#333333"/>
<path id="Vector_12" d="M29.1694 15.4696C29.1694 15.7626 29.4184 16.0019 29.725 16.0019C30.032 16.0019 30.2806 15.7626 30.2806 15.4696C30.2806 15.7626 30.5299 16.0019 30.8362 16.0019C31.1431 16.0019 31.3917 15.7626 31.3917 15.4696C31.3917 15.7626 31.1431 16.0019 30.8362 16.0019C30.5299 16.0019 30.2806 15.7626 30.2806 15.4696C30.2806 15.7626 30.032 16.0019 29.725 16.0019C29.4184 16.0019 29.1694 15.7626 29.1694 15.4696Z" fill="#333333"/>
<path id="Vector_13" d="M29.9103 0.380859C29.5017 0.380859 29.1694 0.699402 29.1694 1.09175V1.09143V16.0016L30.2802 20.2615L31.3914 16.0016V1.09111V1.09143C31.3914 0.699722 31.0595 0.381179 30.6505 0.381179L29.9103 0.380859Z" fill="#333333"/>
</symbol>
<symbol id="facebook" viewBox="0 0 32 32">
<path d="M20.446 15.982h-2.61v9.618h-3.955v-9.618h-1.881v-3.38h1.881v-2.187c0-1.564 0.739-4.014 3.99-4.014l2.929 0.012v3.281h-2.125c-0.349 0-0.839 0.175-0.839 0.921v1.989h2.955l-0.346 3.377z"></path>
</symbol>
<symbol id="button-arrow" viewBox="0 0 11 11">
<path d="m 0.89453125,0.00585938 a 1,1 0 0 0 -0.671875,0.36523437 1,1 0 0 0 0.1484375,1.40624995 L 4.359375,5 0.37109375,8.2226563 a 1,1 0 0 0 -0.1484375,1.40625 1,1 0 0 0 1.40624995,0.1484375 L 6.5761719,5.7773437 a 1.0001,1.0001 0 0 0 0,-1.5546875 L 1.6289062,0.22265625 A 1,1 0 0 0 0.89453125,0.00585938 Z"/>
</symbol>
<symbol id="arrow-default" viewBox="0 0 41 16">
<path d="M40.7071 8.70711C41.0976 8.31658 41.0976 7.68342 40.7071 7.29289L34.3431 0.928932C33.9526 0.538408 33.3195 0.538408 32.9289 0.928932C32.5384 1.31946 32.5384 1.95262 32.9289 2.34315L38.5858 8L32.9289 13.6569C32.5384 14.0474 32.5384 14.6805 32.9289 15.0711C33.3195 15.4616 33.9526 15.4616 34.3431 15.0711L40.7071 8.70711ZM0 9H40V7H0V9Z"/>
</symbol>
<symbol id="arrow-hover" viewBox="0 0 51 16">
<path d="M50.7071 8.70711C51.0976 8.31658 51.0976 7.68342 50.7071 7.29289L44.3431 0.928932C43.9526 0.538408 43.3195 0.538408 42.9289 0.928932C42.5384 1.31946 42.5384 1.95262 42.9289 2.34315L48.5858 8L42.9289 13.6569C42.5384 14.0474 42.5384 14.6805 42.9289 15.0711C43.3195 15.4616 43.9526 15.4616 44.3431 15.0711L50.7071 8.70711ZM0 9H50V7H0V9Z"/>
</symbol>

<symbol id="arrow-focus" viewBox="0 0 52 24">
<path d="M51.0607 13.0607C51.6464 12.4749 51.6464 11.5251 51.0607 10.9393L41.5147 1.3934C40.9289 0.807611 39.9792 0.807611 39.3934 1.3934C38.8076 1.97919 38.8076 2.92893 39.3934 3.51472L47.8787 12L39.3934 20.4853C38.8076 21.0711 38.8076 22.0208 39.3934 22.6066C39.9792 23.1924 40.9289 23.1924 41.5147 22.6066L51.0607 13.0607ZM0 13.5H50V10.5H0V13.5Z"/>
</symbol>
<symbol id="arrow-right" viewBox="0 0 16 16">
<path  d="M9.707 13.707l5-5c0.391-0.39 0.391-1.024 0-1.414l-5-5c-0.391-0.391-1.024-0.391-1.414 0s-0.391 1.024 0 1.414l3.293 3.293h-9.586c-0.552 0-1 0.448-1 1s0.448 1 1 1h9.586l-3.293 3.293c-0.195 0.195-0.293 0.451-0.293 0.707s0.098 0.512 0.293 0.707c0.391 0.391 1.024 0.391 1.414 0z"/>
</symbol>
<symbol id="arrow-left" viewBox="0 0 16 16">
<path  d="M6.293 13.707l-5-5c-0.391-0.39-0.391-1.024 0-1.414l5-5c0.391-0.391 1.024-0.391 1.414 0s0.391 1.024 0 1.414l-3.293 3.293h9.586c0.552 0 1 0.448 1 1s-0.448 1-1 1h-9.586l3.293 3.293c0.195 0.195 0.293 0.451 0.293 0.707s-0.098 0.512-0.293 0.707c-0.391 0.391-1.024 0.391-1.414 0z"/>
</symbol>
<symbol id="pencil" viewBox="0 0 16 16">
<path  d="M6 10l2-1 7-7-1-1-7 7-1 2zM4.52 13.548c-0.494-1.043-1.026-1.574-2.069-2.069l1.548-4.262 2-1.217 6-6h-3l-6 6-3 10 10-3 6-6v-3l-6 6-1.217 2z"></path>
</symbol>
<symbol id="cart" viewBox="0 0 16 16">
<path  d="M6 14.5c0 0.828-0.672 1.5-1.5 1.5s-1.5-0.672-1.5-1.5c0-0.828 0.672-1.5 1.5-1.5s1.5 0.672 1.5 1.5z"></path>
<path  d="M16 14.5c0 0.828-0.672 1.5-1.5 1.5s-1.5-0.672-1.5-1.5c0-0.828 0.672-1.5 1.5-1.5s1.5 0.672 1.5 1.5z"></path>
<path  d="M16 8v-6h-12c0-0.552-0.448-1-1-1h-3v1h2l0.751 6.438c-0.458 0.367-0.751 0.93-0.751 1.562 0 1.105 0.895 2 2 2h12v-1h-12c-0.552 0-1-0.448-1-1 0-0.003 0-0.007 0-0.010l13-1.99z"></path>
</symbol>
</defs></svg>