<svg aria-hidden="true" style="position:absolute;width:0;height:0;overflow:hidden" xmlns="http://www.w3.org/2000/svg">
<defs>

<symbol id="icon-close" viewBox="0 0 32 32">
<path d="M26.667 7.303l-1.97-1.97-7.808 7.808-7.808-7.808-1.97 1.97 7.808 7.808-7.808 7.808 1.97 1.97 7.808-7.808 7.808 7.808 1.97-1.97-7.808-7.808 7.808-7.808z"></path>
</symbol>
<symbol id="icon-send" viewBox="0 0 32 32">
<path d="M32 0l-32 18 10.227 3.787 15.773-14.787-11.997 16.187 0.009 0.003-0.012-0.003v8.813l5.735-6.691 7.267 2.691 4.999-28z"></path>
</symbol>
<symbol id="icon-person" viewBox="0 0 32 32">
<path d="M16 16c2.946 0 5.333-2.388 5.333-5.333s-2.388-5.333-5.333-5.333v0c-2.946 0-5.333 2.388-5.333 5.333s2.388 5.333 5.333 5.333v0zM16 18.667c-3.561 0-10.667 1.787-10.667 5.333v1.333c0 0.732 0.599 1.333 1.333 1.333h18.667c0.732 0 1.333-0.601 1.333-1.333v-1.333c0-3.547-7.108-5.333-10.667-5.333z"></path>
</symbol>
<symbol id="icon-phone" viewBox="0 0 32 32">
<path d="M24.882 19.774l-3.268-0.373c-0.090-0.011-0.194-0.018-0.3-0.018-0.707 0-1.347 0.287-1.81 0.75l-2.368 2.368c-3.669-1.894-6.585-4.81-8.427-8.372l-0.051-0.108 2.382-2.377c0.463-0.463 0.75-1.103 0.75-1.81 0-0.106-0.006-0.21-0.019-0.312l0.001 0.012-0.373-3.243c-0.155-1.287-1.24-2.276-2.557-2.276-0.001 0-0.002 0-0.003 0h-2.226c-1.454 0-2.663 1.209-2.574 2.661 0.683 10.987 9.47 19.762 20.444 20.444 1.452 0.089 2.663-1.12 2.663-2.574v-2.226c0-0.004 0-0.008 0-0.012 0-1.308-0.985-2.386-2.253-2.532l-0.012-0.001z"></path>
</symbol>
<symbol id="icon-email-form" viewBox="0 0 32 32">
<path d="M26.667 5.333h-21.333c-1.467 0-2.652 1.2-2.652 2.667l-0.014 16c0 1.467 1.2 2.667 2.667 2.667h21.333c1.467 0 2.667-1.2 2.667-2.667v-16c0-1.467-1.2-2.667-2.667-2.667zM26.133 11.001l-9.426 5.892c-0.201 0.126-0.446 0.2-0.708 0.2s-0.506-0.075-0.713-0.204l0.006 0.003-9.426-5.892c-0.336-0.201-0.557-0.562-0.557-0.975 0-0.625 0.507-1.132 1.132-1.132 0.233 0 0.449 0.070 0.629 0.19l-0.004-0.003 8.933 5.586 8.933-5.588c0.176-0.118 0.392-0.188 0.624-0.188 0.625 0 1.132 0.507 1.132 1.132 0 0.413-0.221 0.775-0.552 0.972l-0.005 0.003z"></path>
</symbol>
<symbol id="icon-agree" viewBox="0 0 32 32">
<path d="M28.444 4.334v23.332h-24.888v-23.332h24.888zM28.444 1h-24.888c-1.956 0-3.556 1.5-3.556 3.334v23.332c0 1.834 1.6 3.334 3.556 3.334h24.888c1.956 0 3.556-1.5 3.556-3.334v-23.332c0-1.834-1.6-3.334-3.556-3.334z"></path>
</symbol>
<symbol id="icon-check" viewBox="0 0 36 20">
<path  d="M4.267 0h25.6c2.356 0 4.267 1.91 4.267 4.267v23.467c0 2.356-1.91 4.267-4.267 4.267h-25.6c-2.356 0-4.267-1.91-4.267-4.267v-23.467c0-2.356 1.91-4.267 4.267-4.267z"></path>
<path fill="#fff" style="fill: var(--color2, #fff); stroke: var(--color2, #fff)" stroke="#fff" stroke-linejoin="miter" stroke-linecap="butt" stroke-miterlimit="4" stroke-width="0.4267" d="M8.442 16.538l-0.147-0.141-0.147 0.139-2.057 1.95 0.162 0.156 7.605 7.253 0.147-0.141 16.171-15.426-0.162-0.154-2.029-1.935-0.147 0.141-13.98 13.325-5.417-5.167z"></path>
</symbol>
<symbol id="icon-burger" viewBox="0 0 32 32">
<path d="M6.4 11.733v-2.133h19.2v2.133h-19.2zM6.4 17.067h19.2v-2.133h-19.2v2.133zM6.4 22.4h19.2v-2.133h-19.2v2.133z"></path>
</symbol>
<symbol id="facebook" viewBox="0 0 16 24">
<path d="M20.446 15.982h-2.61v9.618h-3.955v-9.618h-1.881v-3.38h1.881v-2.187c0-1.564 0.739-4.014 3.99-4.014l2.929 0.012v3.281h-2.125c-0.349 0-0.839 0.175-0.839 0.921v1.989h2.955l-0.346 3.377z"></path>
</symbol>
<symbol id="button-arrow" viewBox="0 0 11 11">
<path d="m 0.89453125,0.00585938 a 1,1 0 0 0 -0.671875,0.36523437 1,1 0 0 0 0.1484375,1.40624995 L 4.359375,5 0.37109375,8.2226563 a 1,1 0 0 0 -0.1484375,1.40625 1,1 0 0 0 1.40624995,0.1484375 L 6.5761719,5.7773437 a 1.0001,1.0001 0 0 0 0,-1.5546875 L 1.6289062,0.22265625 A 1,1 0 0 0 0.89453125,0.00585938 Z"/>
</symbol>
<symbol id="arrow-default" viewBox="0 0 41 16">
<path d="M40.7071 8.70711C41.0976 8.31658 41.0976 7.68342 40.7071 7.29289L34.3431 0.928932C33.9526 0.538408 33.3195 0.538408 32.9289 0.928932C32.5384 1.31946 32.5384 1.95262 32.9289 2.34315L38.5858 8L32.9289 13.6569C32.5384 14.0474 32.5384 14.6805 32.9289 15.0711C33.3195 15.4616 33.9526 15.4616 34.3431 15.0711L40.7071 8.70711ZM0 9H40V7H0V9Z"/>
</symbol>
<symbol id="arrow-hover" viewBox="0 0 51 16">
<path d="M50.7071 8.70711C51.0976 8.31658 51.0976 7.68342 50.7071 7.29289L44.3431 0.928932C43.9526 0.538408 43.3195 0.538408 42.9289 0.928932C42.5384 1.31946 42.5384 1.95262 42.9289 2.34315L48.5858 8L42.9289 13.6569C42.5384 14.0474 42.5384 14.6805 42.9289 15.0711C43.3195 15.4616 43.9526 15.4616 44.3431 15.0711L50.7071 8.70711ZM0 9H50V7H0V9Z"/>
</symbol>

<symbol id="arrow-focus" viewBox="0 0 52 24">
<path d="M51.0607 13.0607C51.6464 12.4749 51.6464 11.5251 51.0607 10.9393L41.5147 1.3934C40.9289 0.807611 39.9792 0.807611 39.3934 1.3934C38.8076 1.97919 38.8076 2.92893 39.3934 3.51472L47.8787 12L39.3934 20.4853C38.8076 21.0711 38.8076 22.0208 39.3934 22.6066C39.9792 23.1924 40.9289 23.1924 41.5147 22.6066L51.0607 13.0607ZM0 13.5H50V10.5H0V13.5Z"/>
</symbol>
<symbol id="arrow-right" viewBox="0 0 16 16">
<path  d="M9.707 13.707l5-5c0.391-0.39 0.391-1.024 0-1.414l-5-5c-0.391-0.391-1.024-0.391-1.414 0s-0.391 1.024 0 1.414l3.293 3.293h-9.586c-0.552 0-1 0.448-1 1s0.448 1 1 1h9.586l-3.293 3.293c-0.195 0.195-0.293 0.451-0.293 0.707s0.098 0.512 0.293 0.707c0.391 0.391 1.024 0.391 1.414 0z"/>
</symbol>
<symbol id="arrow-left" viewBox="0 0 16 16">
<path  d="M6.293 13.707l-5-5c-0.391-0.39-0.391-1.024 0-1.414l5-5c0.391-0.391 1.024-0.391 1.414 0s0.391 1.024 0 1.414l-3.293 3.293h9.586c0.552 0 1 0.448 1 1s-0.448 1-1 1h-9.586l3.293 3.293c0.195 0.195 0.293 0.451 0.293 0.707s-0.098 0.512-0.293 0.707c-0.391 0.391-1.024 0.391-1.414 0z"/>
</symbol>
<symbol id="pencil" viewBox="0 0 16 16">
<path  d="M6 10l2-1 7-7-1-1-7 7-1 2zM4.52 13.548c-0.494-1.043-1.026-1.574-2.069-2.069l1.548-4.262 2-1.217 6-6h-3l-6 6-3 10 10-3 6-6v-3l-6 6-1.217 2z"></path>
</symbol>
<symbol id="cart" viewBox="0 0 16 16">
<path  d="M6 14.5c0 0.828-0.672 1.5-1.5 1.5s-1.5-0.672-1.5-1.5c0-0.828 0.672-1.5 1.5-1.5s1.5 0.672 1.5 1.5z"></path>
<path  d="M16 14.5c0 0.828-0.672 1.5-1.5 1.5s-1.5-0.672-1.5-1.5c0-0.828 0.672-1.5 1.5-1.5s1.5 0.672 1.5 1.5z"></path>
<path  d="M16 8v-6h-12c0-0.552-0.448-1-1-1h-3v1h2l0.751 6.438c-0.458 0.367-0.751 0.93-0.751 1.562 0 1.105 0.895 2 2 2h12v-1h-12c-0.552 0-1-0.448-1-1 0-0.003 0-0.007 0-0.010l13-1.99z"></path>
</symbol>
<symbol id="location" viewBox="0 0 16 16">
<path  d="M8 0c-2.761 0-5 2.239-5 5 0 5 5 11 5 11s5-6 5-11c0-2.761-2.239-5-5-5zM8 8c-1.657 0-3-1.343-3-3s1.343-3 3-3 3 1.343 3 3-1.343 3-3 3z"></path>
</symbol>
<symbol id="twitter" viewBox="0 0 16 16">
<path  d="M16 3.538c-0.588 0.263-1.222 0.438-1.884 0.516 0.678-0.406 1.197-1.050 1.444-1.816-0.634 0.375-1.338 0.65-2.084 0.797-0.6-0.638-1.453-1.034-2.397-1.034-1.813 0-3.281 1.469-3.281 3.281 0 0.256 0.028 0.506 0.084 0.747-2.728-0.138-5.147-1.444-6.766-3.431-0.281 0.484-0.444 1.050-0.444 1.65 0 1.138 0.578 2.144 1.459 2.731-0.538-0.016-1.044-0.166-1.488-0.409 0 0.013 0 0.028 0 0.041 0 1.591 1.131 2.919 2.634 3.219-0.275 0.075-0.566 0.116-0.866 0.116-0.212 0-0.416-0.022-0.619-0.059 0.419 1.303 1.631 2.253 3.066 2.281-1.125 0.881-2.538 1.406-4.078 1.406-0.266 0-0.525-0.016-0.784-0.047 1.456 0.934 3.181 1.475 5.034 1.475 6.037 0 9.341-5.003 9.341-9.341 0-0.144-0.003-0.284-0.009-0.425 0.641-0.459 1.197-1.038 1.637-1.697z"></path>
</symbol>
<symbol id="linkedin" viewBox="0 0 16 16">
<path  d="M6 6h2.767v1.418h0.040c0.385-0.691 1.327-1.418 2.732-1.418 2.921 0 3.461 1.818 3.461 4.183v4.817h-2.885v-4.27c0-1.018-0.021-2.329-1.5-2.329-1.502 0-1.732 1.109-1.732 2.255v4.344h-2.883v-9z"></path>
<path  d="M1 6h3v9h-3v-9z"></path>
<path  d="M4 3.5c0 0.828-0.672 1.5-1.5 1.5s-1.5-0.672-1.5-1.5c0-0.828 0.672-1.5 1.5-1.5s1.5 0.672 1.5 1.5z"></path>
</symbol>
<symbol id="pinterest" viewBox="0 0 16 16">
<path  d="M8 1.069c-3.828 0-6.931 3.103-6.931 6.931 0 2.938 1.828 5.444 4.406 6.453-0.059-0.547-0.116-1.391 0.025-1.988 0.125-0.541 0.813-3.444 0.813-3.444s-0.206-0.416-0.206-1.028c0-0.963 0.559-1.684 1.253-1.684 0.591 0 0.878 0.444 0.878 0.975 0 0.594-0.378 1.484-0.575 2.306-0.166 0.691 0.344 1.253 1.025 1.253 1.231 0 2.178-1.3 2.178-3.175 0-1.659-1.194-2.819-2.894-2.819-1.972 0-3.128 1.478-3.128 3.009 0 0.597 0.228 1.234 0.516 1.581 0.056 0.069 0.066 0.128 0.047 0.2-0.053 0.219-0.169 0.691-0.194 0.787-0.031 0.128-0.1 0.153-0.231 0.094-0.866-0.403-1.406-1.669-1.406-2.684 0-2.188 1.587-4.194 4.578-4.194 2.403 0 4.272 1.712 4.272 4.003 0 2.388-1.506 4.313-3.597 4.313-0.703 0-1.362-0.366-1.588-0.797 0 0-0.347 1.322-0.431 1.647-0.156 0.603-0.578 1.356-0.862 1.816 0.65 0.2 1.337 0.309 2.053 0.309 3.828 0 6.931-3.103 6.931-6.931 0-3.831-3.103-6.934-6.931-6.934z"></path>
</symbol>
</defs></svg>